<svg xmlns="http://www.w3.org/2000/svg" width="1200" height="1500" viewBox="0 0 1200 1500">
  <defs>
    <linearGradient id="bg-portfolio-lifestyle.svg" x1="0" y1="0" x2="1" y2="1">
      <stop offset="0%" stop-color="#2A211A"/>
      <stop offset="42%" stop-color="#0D0D0D"/>
      <stop offset="100%" stop-color="#BFA06A"/>
    </linearGradient>
    <radialGradient id="glow-portfolio-lifestyle.svg" cx="35%" cy="22%" r="58%">
      <stop offset="0%" stop-color="#F5F1EA" stop-opacity=".32"/>
      <stop offset="52%" stop-color="#BFA06A" stop-opacity=".15"/>
      <stop offset="100%" stop-color="#0D0D0D" stop-opacity="0"/>
    </radialGradient>
    <pattern id="grid-portfolio-lifestyle.svg" width="80" height="80" patternUnits="userSpaceOnUse">
      <path d="M 80 0 L 0 0 0 80" fill="none" stroke="#F5F1EA" stroke-opacity=".065" stroke-width="1"/>
    </pattern>
  </defs>

  <rect width="1200" height="1500" fill="url(#bg-portfolio-lifestyle.svg)"/>
  <rect width="1200" height="1500" fill="url(#glow-portfolio-lifestyle.svg)"/>
  <rect width="1200" height="1500" fill="url(#grid-portfolio-lifestyle.svg)" opacity=".7"/>

  <circle cx="1020" cy="190" r="330" fill="#BFA06A" opacity=".14"/>
  <circle cx="160" cy="1220" r="340" fill="#F5F1EA" opacity=".09"/>

  <text x="90" y="115" fill="#BFA06A" opacity=".85" font-family="Arial, Helvetica, sans-serif" font-size="22" letter-spacing="13">WORK / LIFESTYLE</text>

  
      <path d="M250 840 C360 650 480 610 600 720 C720 610 840 650 950 840" fill="none" stroke="#F5F1EA" stroke-opacity=".17" stroke-width="5"/>
      <circle cx="520" cy="470" r="90" fill="#F5F1EA" opacity=".10"/>
      <rect x="650" y="360" width="230" height="360" rx="115" fill="#BFA06A" opacity=".12"/>
      <path d="M330 1010 C480 910 720 910 870 1010" fill="none" stroke="#BFA06A" stroke-opacity=".18" stroke-width="4"/>
    

  <rect x="76" y="1190" width="1048" height="210" rx="42" fill="#0D0D0D" opacity=".48" stroke="#F5F1EA" stroke-opacity=".09"/>

  <text x="105" y="1290" fill="#F5F1EA" opacity=".9" font-family="Georgia, 'Times New Roman', serif" font-size="76" letter-spacing="-4">Lifestyle Story</text>
  <text x="110" y="1358" fill="#BFA06A" opacity=".78" font-family="Arial, Helvetica, sans-serif" font-size="22" letter-spacing="12">EDITORIAL LIFESTYLE</text>

  <path d="M88 1430 L1112 1430" stroke="#F5F1EA" stroke-opacity=".12" stroke-width="2"/>
</svg>