<svg xmlns="http://www.w3.org/2000/svg" width="1200" height="1500" viewBox="0 0 1200 1500">
  <defs>
    <linearGradient id="bg-video-production.svg" x1="0" y1="0" x2="1" y2="1">
      <stop offset="0%" stop-color="#2A211A"/>
      <stop offset="42%" stop-color="#0D0D0D"/>
      <stop offset="100%" stop-color="#C8A96A"/>
    </linearGradient>
    <radialGradient id="glow-video-production.svg" cx="35%" cy="22%" r="58%">
      <stop offset="0%" stop-color="#F5F1EA" stop-opacity=".32"/>
      <stop offset="52%" stop-color="#C8A96A" stop-opacity=".15"/>
      <stop offset="100%" stop-color="#0D0D0D" stop-opacity="0"/>
    </radialGradient>
    <pattern id="grid-video-production.svg" width="80" height="80" patternUnits="userSpaceOnUse">
      <path d="M 80 0 L 0 0 0 80" fill="none" stroke="#F5F1EA" stroke-opacity=".065" stroke-width="1"/>
    </pattern>
  </defs>

  <rect width="1200" height="1500" fill="url(#bg-video-production.svg)"/>
  <rect width="1200" height="1500" fill="url(#glow-video-production.svg)"/>
  <rect width="1200" height="1500" fill="url(#grid-video-production.svg)" opacity=".7"/>

  <circle cx="1020" cy="190" r="330" fill="#C8A96A" opacity=".14"/>
  <circle cx="160" cy="1220" r="340" fill="#F5F1EA" opacity=".09"/>

  <text x="90" y="115" fill="#C8A96A" opacity=".85" font-family="Arial, Helvetica, sans-serif" font-size="22" letter-spacing="13">VIDEO</text>

  
      <rect x="320" y="430" width="470" height="330" rx="64" fill="#0D0D0D" opacity=".62" stroke="#F5F1EA" stroke-opacity=".12" stroke-width="3"/>
      <path d="M790 535 L970 455 L970 735 L790 655 Z" fill="#C8A96A" opacity=".18" stroke="#C8A96A" stroke-opacity=".18"/>
      <circle cx="480" cy="595" r="84" fill="#F5F1EA" opacity=".14" stroke="#C8A96A" stroke-opacity=".28" stroke-width="4"/>
      <rect x="390" y="810" width="420" height="22" rx="11" fill="#F5F1EA" opacity=".12"/>
    

  <rect x="76" y="1190" width="1048" height="210" rx="42" fill="#0D0D0D" opacity=".48" stroke="#F5F1EA" stroke-opacity=".09"/>

  <text x="105" y="1290" fill="#F5F1EA" opacity=".9" font-family="Georgia, 'Times New Roman', serif" font-size="76" letter-spacing="-4">Video Production</text>
  <text x="110" y="1358" fill="#C8A96A" opacity=".78" font-family="Arial, Helvetica, sans-serif" font-size="22" letter-spacing="12">SOCIAL CONTENT</text>

  <path d="M88 1430 L1112 1430" stroke="#F5F1EA" stroke-opacity=".12" stroke-width="2"/>
</svg>